HIERARCHY
ROOT joint_Root
{
	OFFSET 0.0 0.0 0.0
	CHANNELS 6 Xposition Yposition Zposition Zrotation Xrotation Yrotation 
	JOINT Hips
	{
		OFFSET -17.1583 93.1646 452.98
		CHANNELS 6 Xposition Yposition Zposition Zrotation Xrotation Yrotation 
		JOINT Spine
		{
			OFFSET 15.7357 0.0 0.0
			CHANNELS 6 Xposition Yposition Zposition Zrotation Xrotation Yrotation 
			JOINT Chest
			{
				OFFSET 8.98455 -0.406207 0.0
				CHANNELS 6 Xposition Yposition Zposition Zrotation Xrotation Yrotation 
				JOINT Neck
				{
					OFFSET 16.3773 0.0 0.0
					CHANNELS 6 Xposition Yposition Zposition Zrotation Xrotation Yrotation 
					JOINT Head
					{
						OFFSET 6.45672 0.0 0.0
						CHANNELS 6 Xposition Yposition Zposition Zrotation Xrotation Yrotation 
						End Site
						{
							OFFSET 0.0 0.0 0.0
						}
					}
				}
				JOINT Shoulder_L
				{
					OFFSET 12.9942 -0.242716 4.98039
					CHANNELS 6 Xposition Yposition Zposition Zrotation Xrotation Yrotation 
					JOINT UpperArm_L
					{
						OFFSET 5.34809 0.0 0.0
						CHANNELS 6 Xposition Yposition Zposition Zrotation Xrotation Yrotation 
						JOINT LowerArm_L
						{
							OFFSET 24.3286 1.87007e-05 0.0
							CHANNELS 6 Xposition Yposition Zposition Zrotation Xrotation Yrotation 
							JOINT Hand_L
							{
								OFFSET 22.2916 0.0 0.0
								CHANNELS 6 Xposition Yposition Zposition Zrotation Xrotation Yrotation 
								End Site
								{
									OFFSET 0.0 0.0 0.0
								}
							}
						}
					}
				}
				JOINT Shoulder_R
				{
					OFFSET 12.9945 -0.242716 -4.98039
					CHANNELS 6 Xposition Yposition Zposition Zrotation Xrotation Yrotation 
					JOINT UpperArm_R
					{
						OFFSET -5.34813 0.0 0.0
						CHANNELS 6 Xposition Yposition Zposition Zrotation Xrotation Yrotation 
						JOINT LowerArm_R
						{
							OFFSET -24.3289 0.000322201 0.0
							CHANNELS 6 Xposition Yposition Zposition Zrotation Xrotation Yrotation 
							JOINT Hand_R
							{
								OFFSET -22.2915 -0.000108084 0.0
								CHANNELS 6 Xposition Yposition Zposition Zrotation Xrotation Yrotation 
								End Site
								{
									OFFSET 0.0 0.0 0.0
								}
							}
						}
					}
				}
			}
		}
		JOINT UpperLeg_L
		{
			OFFSET -2.19248 -6.46944 0.0
			CHANNELS 6 Xposition Yposition Zposition Zrotation Xrotation Yrotation 
			JOINT LowerLeg_L
			{
				OFFSET 39.0811 0.0 -1.23785e-05
				CHANNELS 6 Xposition Yposition Zposition Zrotation Xrotation Yrotation 
				JOINT Foot_L
				{
					OFFSET 40.9854 0.0 -1.26872e-05
					CHANNELS 6 Xposition Yposition Zposition Zrotation Xrotation Yrotation 
					JOINT Toes_L
					{
						OFFSET 11.7543 0.0 0.0
						CHANNELS 6 Xposition Yposition Zposition Zrotation Xrotation Yrotation 
						End Site
						{
							OFFSET 0.0 0.0 0.0
						}
					}
				}
			}
		}
		JOINT UpperLeg_R
		{
			OFFSET -2.19251 6.46944 0.0
			CHANNELS 6 Xposition Yposition Zposition Zrotation Xrotation Yrotation 
			JOINT LowerLeg_R
			{
				OFFSET -39.0811 -0.00228153 -0.0401928
				CHANNELS 6 Xposition Yposition Zposition Zrotation Xrotation Yrotation 
				JOINT Foot_R
				{
					OFFSET -40.9854 0.0 0.0
					CHANNELS 6 Xposition Yposition Zposition Zrotation Xrotation Yrotation 
					JOINT Toes_R
					{
						OFFSET -11.7543 0.0 0.0
						CHANNELS 6 Xposition Yposition Zposition Zrotation Xrotation Yrotation 
						End Site
						{
							OFFSET 0.0 0.0 0.0
						}
					}
				}
			}
		}
	}
}
MOTION
Frames:	4
Frame Time:	0.0333333
0.000000 0.000000 0.000000 0.000000 0.000000 -0.000000 1.062260 91.359100 7.816910 89.184400 0.326844 7.134130 15.735700 0.000005 -0.000001 -105.893000 89.132500 106.899000 8.984550 -0.406207 -0.000000 -9.436800 0.322549 2.043510 16.377300 -0.000001 -0.000001 -6.858320 -0.518032 0.502107 6.456720 -0.000001 -0.000000 -1.157250 0.898144 -2.345340 12.994200 -0.242716 4.980390 -88.011400 -3.776080 -62.200400 5.348090 -0.000007 -0.000001 -66.130900 -60.915200 -107.020000 24.328600 0.000019 0.000005 0.000046 -5.517130 0.000001 22.291600 -0.000001 0.000005 36.513700 4.112310 22.608900 12.994500 -0.242716 -4.980390 94.055200 -7.667200 -62.014700 -5.348130 -0.000001 -0.000004 -73.793100 -60.424100 -119.928000 -24.328900 0.000322 -0.000009 -0.001102 -34.096200 -0.000201 -22.291500 -0.000108 -0.000004 49.313300 5.466640 -5.245610 -2.192480 -6.469440 -0.000000 -174.564000 -6.520000 9.398700 39.081100 -0.000007 -0.000012 0.069475 -0.200960 19.071300 40.985400 -0.000006 -0.000013 1.729560 12.870200 -74.602900 11.754300 -0.000000 0.000003 -0.002488 0.202301 -8.368610 -2.192510 6.469440 -0.000001 173.440000 5.056720 -169.200000 -39.081100 -0.002282 -0.040193 0.006809 -0.011781 16.463300 -40.985400 0.000008 0.000006 -7.410780 6.802820 -74.494300 -11.754300 -0.000006 -0.000006 -0.012184 0.286959 -4.910230
0.000000 0.000000 0.000000 0.000000 0.000000 -0.000000 1.040290 91.388400 7.724200 89.169300 0.316417 7.056060 15.735700 0.000005 -0.000001 -107.368000 89.140800 108.364000 8.984550 -0.406207 -0.000000 -9.408550 0.361817 2.028780 16.377300 -0.000001 -0.000001 -6.767740 -0.529407 0.517697 6.456720 -0.000001 -0.000000 -1.208820 0.882363 -2.326150 12.994200 -0.242716 4.980390 -88.011400 -3.774410 -62.189700 5.348090 -0.000007 -0.000001 -66.118000 -60.809900 -107.133000 24.328600 0.000019 0.000005 0.000044 -5.419600 0.000001 22.291600 -0.000001 0.000005 36.617900 4.105380 22.710100 12.994500 -0.242716 -4.980390 94.045600 -7.647850 -62.011800 -5.348130 -0.000001 -0.000004 -74.232300 -60.271800 -120.396000 -24.328900 0.000322 -0.000009 -0.001105 -34.045900 -0.000201 -22.291500 -0.000108 -0.000004 49.209700 5.465590 -5.206760 -2.192480 -6.469440 -0.000000 -174.581000 -6.476020 9.272760 39.081100 -0.000007 -0.000012 0.072322 -0.209593 19.037600 40.985400 -0.000006 -0.000013 1.682310 12.773500 -74.625100 11.754300 -0.000000 0.000003 -0.002743 0.205287 -8.247120 -2.192510 6.469440 -0.000001 173.490000 4.963490 -169.319000 -39.081100 -0.002282 -0.040193 0.005291 -0.006669 16.405100 -40.985400 0.000008 0.000006 -7.592720 6.812320 -74.428400 -11.754300 -0.000006 -0.000006 -0.012852 0.291507 -4.723900
0.000000 0.000000 0.000000 0.000000 0.000000 -0.000000 1.006470 91.403700 7.639630 89.158200 0.304556 6.975200 15.735700 0.000005 -0.000001 -107.547000 89.162200 108.536000 8.984550 -0.406207 -0.000000 -9.366060 0.355476 2.014230 16.377300 -0.000001 -0.000001 -6.734150 -0.551770 0.582963 6.456720 -0.000001 -0.000000 -1.230560 0.932481 -2.359050 12.994200 -0.242716 4.980390 -88.007100 -3.781920 -62.186000 5.348090 -0.000007 -0.000001 -66.123300 -60.792000 -107.229000 24.328600 0.000019 0.000005 0.000045 -5.366380 0.000001 22.291600 -0.000001 0.000005 36.679100 4.102010 22.759400 12.994500 -0.242716 -4.980390 94.056900 -7.676310 -62.032800 -5.348130 -0.000001 -0.000004 -74.116400 -60.236500 -120.397000 -24.328900 0.000322 -0.000009 -0.001105 -34.026600 -0.000201 -22.291500 -0.000108 -0.000004 49.205000 5.462840 -5.105340 -2.192480 -6.469440 -0.000000 -174.578000 -6.443910 9.099980 39.081100 -0.000007 -0.000012 0.071745 -0.207424 19.079900 40.985400 -0.000006 -0.000013 1.665380 12.774300 -74.587400 11.754300 -0.000000 0.000003 -0.003063 0.208940 -8.098480 -2.192510 6.469440 -0.000001 173.544000 5.029200 -169.468000 -39.081100 -0.002282 -0.040193 0.008060 -0.016058 16.418100 -40.985400 0.000008 0.000006 -7.389500 6.778230 -74.361100 -11.754300 -0.000006 -0.000006 -0.012195 0.287031 -4.907280
0.000000 0.000000 0.000000 0.000000 0.000000 -0.000000 0.988435 91.433400 7.575230 89.133600 0.289427 6.909920 15.735700 0.000005 -0.000001 -108.805000 89.178200 109.780000 8.984550 -0.406207 -0.000000 -9.324550 0.382634 1.986540 16.377300 -0.000001 -0.000001 -6.689080 -0.562740 0.567536 6.456720 -0.000001 -0.000000 -1.263490 0.866913 -2.260580 12.994200 -0.242716 4.980390 -87.992500 -3.812940 -62.205800 5.348090 -0.000007 -0.000001 -66.473700 -60.677700 -107.590000 24.328600 0.000019 0.000005 0.000045 -5.283120 0.000001 22.291600 -0.000001 0.000005 36.524000 4.105430 22.709400 12.994500 -0.242716 -4.980390 94.066800 -7.690620 -62.018700 -5.348130 -0.000001 -0.000004 -73.984000 -60.195000 -120.335000 -24.328900 0.000322 -0.000009 -0.001103 -33.833000 -0.000199 -22.291500 -0.000108 -0.000004 49.192500 5.462750 -5.101550 -2.192480 -6.469440 -0.000000 -174.548000 -6.438680 9.058150 39.081100 -0.000007 -0.000012 0.068141 -0.198481 18.948200 40.985400 -0.000006 -0.000013 1.614830 12.740600 -74.487700 11.754300 -0.000000 0.000003 -0.002894 0.207024 -8.176460 -2.192510 6.469440 -0.000001 173.589000 4.983640 -169.520000 -39.081100 -0.002282 -0.040193 0.005391 -0.007061 16.284400 -40.985400 0.000008 0.000006 -7.527460 6.782580 -74.258700 -11.754300 -0.000006 -0.000006 -0.012465 0.288883 -4.831430
